<svg width="17" height="21" viewBox="0 0 17 21" fill="none" xmlns="http://www.w3.org/2000/svg">
<mask id="mask0" mask-type="alpha" maskUnits="userSpaceOnUse" x="0" y="0" width="17" height="21">
<path fill-rule="evenodd" clip-rule="evenodd" d="M14.1743 14.002V8.99949C14.1743 5.92795 12.524 3.35667 9.61829 2.67633V1.99599C9.61829 1.16557 8.93994 0.495239 8.09961 0.495239C7.25927 0.495239 6.58093 1.16557 6.58093 1.99599V2.67633C3.68532 3.35667 2.0249 5.91795 2.0249 8.99949V14.002L0 16.003V17.0035H16.1992V16.003L14.1743 14.002ZM8.09967 20.005C9.21333 20.005 10.1245 19.1045 10.1245 18.004H6.07483C6.07483 19.1045 6.98601 20.005 8.09967 20.005ZM4.04968 15.0025H12.1495V8.99949C12.1495 6.51825 10.6207 4.49724 8.09961 4.49724C5.57853 4.49724 4.04968 6.51825 4.04968 8.99949V15.0025Z" fill="white"/>
</mask>
<g mask="url(#mask0)">
<rect x="-4.43066" y="-2" width="24.2867" height="24" fill="white"/>
</g>
</svg>
