<svg width="20" height="20" viewBox="0 0 20 20" fill="none" xmlns="http://www.w3.org/2000/svg">
<mask id="mask0" mask-type="alpha" maskUnits="userSpaceOnUse" x="0" y="0" width="20" height="20">
<path fill-rule="evenodd" clip-rule="evenodd" d="M2.57336 0.521545H17.4937C18.666 0.521545 19.6251 1.46939 19.6251 2.62786V17.3721C19.6251 18.5305 18.666 19.4784 17.4937 19.4784H2.57336C1.3904 19.4784 0.441895 18.5305 0.441895 17.3721V13.1594H2.57336V17.3721H17.4937V2.62786H2.57336V6.84049H0.441895V2.62786C0.441895 1.46939 1.3904 0.521545 2.57336 0.521545ZM9.50066 15.2658L7.99797 13.7808L10.7476 11.0531H0.441895V8.94681H10.7476L7.99797 6.21913L9.50066 4.73418L14.8293 9.99997L9.50066 15.2658Z" fill="white"/>
</mask>
<g mask="url(#mask0)">
<rect x="-1.95312" y="-2.00006" width="24.2866" height="24" fill="white"/>
</g>
</svg>
