<svg width="202" height="36" viewBox="0 0 202 36" fill="none" xmlns="http://www.w3.org/2000/svg">
<g clip-path="url(#clip0)">
<path fill-rule="evenodd" clip-rule="evenodd" d="M0 18.1065C0 27.9411 8.05887 36 18.1065 36C27.9411 36 36 27.9411 36 18.1065C36 8.05887 27.9411 0 18.1065 0C8.05887 0 0 8.05887 0 18.1065ZM33.7263 18.1065C33.7263 26.6854 26.6854 33.7263 18.1065 33.7263C9.34353 33.7263 2.27368 26.714 2.27368 18.1065C2.27368 9.3146 9.3146 2.27368 18.1065 2.27368C26.714 2.27368 33.7263 9.34353 33.7263 18.1065Z" fill="white"/>
<path fill-rule="evenodd" clip-rule="evenodd" d="M16.4288 13.5917C16.7107 13.359 17.0649 13.2318 17.4305 13.2318C17.7922 13.2318 18.1429 13.3564 18.4235 13.5846L22.6335 17.0082C23.0074 17.3123 23.5156 17.3923 23.9648 17.218L25.9502 16.4474C26.1292 16.3779 26.3302 16.4036 26.4851 16.517C27.0788 16.9516 28.5751 18.0497 29.1289 18.482C30.4861 19.5416 31.486 20.25 31.486 20.25C31.486 20.25 31.4686 19.8601 31.486 19.4401C31.846 10.718 25.2324 4.39017 17.8022 4.50144C10.3803 4.61568 4.38132 10.5662 4.50178 18.8354C4.51309 19.5319 4.6193 20.25 4.6193 20.25L6.50953 18.8354L8.80622 17.1806C9.12242 16.9528 9.54513 16.9393 9.87525 17.1464L10.7991 17.7261C11.0088 17.8577 11.2793 17.8402 11.4703 17.6826L16.4288 13.5917Z" fill="white"/>
<path fill-rule="evenodd" clip-rule="evenodd" d="M16.6359 34.7904C18.8195 35.0437 20.6187 34.6644 21.2437 34.486C21.5288 34.4046 22.5941 34.144 22.8452 34.0596C23.6863 33.777 24.9699 33.1782 25.7013 32.7418C26.7957 32.0887 27.5685 31.4007 28.6388 30.4354C31.015 28.2924 32.625 24.3249 32.625 23.92C32.625 23.8287 28.2146 20.5068 26.9191 19.5329C26.7151 19.3796 26.4318 19.4032 26.253 19.5853C26.0843 19.7571 26.0583 20.0226 26.1911 20.2234C26.6343 20.894 27.5743 22.3246 27.6195 22.4617C27.792 22.9849 27.5465 23.2804 27.3009 23.1231C27.0553 22.9658 21.5646 19.2672 21.5646 19.2672L18.2802 16.9963C17.8686 16.7117 17.3068 17.0063 17.3068 17.5066C17.3068 17.5066 17.1957 19.1166 17.1957 20.1676C17.1957 20.5941 17.1518 21.1118 16.6359 21.246C16.3774 21.3132 15.7234 21.3527 15.7234 21.3527L10.1751 20.9334C9.79851 20.905 9.58736 21.358 9.85128 21.6281C9.85128 21.6281 17.1957 26.5849 17.1957 26.9884C17.1957 27.846 14.552 26.4718 12.4773 25.4639C9.95208 24.2372 7.14641 23.1341 6.44734 22.8633C6.34242 22.8227 6.22787 22.8316 6.13033 22.8877C5.52897 23.2335 3.35694 24.4869 3.37515 24.5407C4.0878 26.6437 5.97806 29.7235 8.8419 31.7745C9.987 32.5946 11.3079 33.3606 12.5939 33.8365C14.0645 34.3806 15.6064 34.7904 16.6359 34.7904Z" fill="white"/>
<path d="M59.0581 21.6895H53.5503L52.3979 25H49.8296L55.2007 10.7812H57.4175L62.7983 25H60.2202L59.0581 21.6895ZM54.2437 19.6973H58.3647L56.3042 13.7988L54.2437 19.6973ZM73.4068 19.8242C73.4068 21.4648 73.039 22.7702 72.3033 23.7402C71.5742 24.7103 70.5683 25.1953 69.2858 25.1953C68.0488 25.1953 67.0852 24.7493 66.3951 23.8574L66.2779 25H64.1295V10H66.5026V15.4492C67.1861 14.6419 68.1074 14.2383 69.2662 14.2383C70.5553 14.2383 71.5677 14.7168 72.3033 15.6738C73.039 16.6309 73.4068 17.9688 73.4068 19.6875V19.8242ZM71.0338 19.6191C71.0338 18.4733 70.832 17.6139 70.4283 17.041C70.0247 16.4681 69.4387 16.1816 68.6705 16.1816C67.6419 16.1816 66.9192 16.6309 66.5026 17.5293V21.8848C66.9257 22.8027 67.6549 23.2617 68.6901 23.2617C69.4322 23.2617 70.0052 22.985 70.4088 22.4316C70.8124 21.8783 71.0208 21.0417 71.0338 19.9219V19.6191ZM81.2712 22.1289C81.2712 21.7057 81.0954 21.3835 80.7439 21.1621C80.3988 20.9408 79.8226 20.7454 79.0154 20.5762C78.2081 20.4069 77.5342 20.1921 76.9939 19.9316C75.809 19.3587 75.2165 18.5286 75.2165 17.4414C75.2165 16.5299 75.6006 15.7682 76.3689 15.1562C77.1371 14.5443 78.1137 14.2383 79.2986 14.2383C80.5616 14.2383 81.5805 14.5508 82.3552 15.1758C83.1364 15.8008 83.5271 16.6113 83.5271 17.6074H81.154C81.154 17.1517 80.9848 16.7741 80.6462 16.4746C80.3077 16.1686 79.8585 16.0156 79.2986 16.0156C78.7777 16.0156 78.3513 16.1361 78.0193 16.377C77.6937 16.6178 77.531 16.9401 77.531 17.3438C77.531 17.7083 77.684 17.9915 77.99 18.1934C78.296 18.3952 78.9144 18.6003 79.8454 18.8086C80.7764 19.0104 81.5056 19.2546 82.0329 19.541C82.5668 19.821 82.9607 20.1595 83.2146 20.5566C83.475 20.9538 83.6052 21.4355 83.6052 22.002C83.6052 22.9525 83.2113 23.724 82.4236 24.3164C81.6358 24.9023 80.6039 25.1953 79.3279 25.1953C78.462 25.1953 77.6905 25.0391 77.0134 24.7266C76.3363 24.4141 75.809 23.9844 75.4314 23.4375C75.0538 22.8906 74.865 22.3014 74.865 21.6699H77.1697C77.2022 22.2298 77.4138 22.6628 77.8044 22.9688C78.195 23.2682 78.7126 23.418 79.3572 23.418C79.9822 23.418 80.4574 23.3008 80.7829 23.0664C81.1085 22.8255 81.2712 22.513 81.2712 22.1289ZM90.2782 25.1953C88.7743 25.1953 87.5535 24.7233 86.616 23.7793C85.6851 22.8288 85.2196 21.5658 85.2196 19.9902V19.6973C85.2196 18.6426 85.4214 17.7018 85.825 16.875C86.2352 16.0417 86.8081 15.3939 87.5438 14.9316C88.2795 14.4694 89.0998 14.2383 90.0047 14.2383C91.4435 14.2383 92.5535 14.6973 93.3348 15.6152C94.1226 16.5332 94.5164 17.832 94.5164 19.5117V20.4688H87.6121C87.6838 21.3411 87.9735 22.0312 88.4813 22.5391C88.9956 23.0469 89.6401 23.3008 90.4149 23.3008C91.5021 23.3008 92.3875 22.8613 93.0711 21.9824L94.3504 23.2031C93.9272 23.8346 93.3608 24.3262 92.6512 24.6777C91.9481 25.0228 91.1571 25.1953 90.2782 25.1953ZM89.995 16.1426C89.3439 16.1426 88.8166 16.3704 88.4129 16.8262C88.0158 17.2819 87.7619 17.9167 87.6512 18.7305H92.1727V18.5547C92.1206 17.7604 91.909 17.1615 91.5379 16.7578C91.1668 16.3477 90.6525 16.1426 89.995 16.1426ZM98.5136 14.4336L98.582 15.6543C99.3632 14.7103 100.389 14.2383 101.658 14.2383C103.859 14.2383 104.978 15.498 105.018 18.0176V25H102.644V18.1543C102.644 17.4837 102.498 16.9889 102.205 16.6699C101.919 16.3444 101.447 16.1816 100.789 16.1816C99.832 16.1816 99.1191 16.6146 98.6503 17.4805V25H96.2773V14.4336H98.5136ZM111.73 23.3008C112.322 23.3008 112.814 23.1283 113.204 22.7832C113.595 22.4382 113.803 22.0117 113.829 21.5039H116.065C116.039 22.1615 115.834 22.7767 115.45 23.3496C115.066 23.916 114.545 24.3652 113.888 24.6973C113.23 25.0293 112.521 25.1953 111.759 25.1953C110.281 25.1953 109.109 24.7168 108.243 23.7598C107.377 22.8027 106.944 21.4811 106.944 19.7949V19.5508C106.944 17.9427 107.374 16.6569 108.233 15.6934C109.093 14.7233 110.265 14.2383 111.749 14.2383C113.006 14.2383 114.028 14.6061 114.815 15.3418C115.61 16.071 116.026 17.0312 116.065 18.2227H113.829C113.803 17.6172 113.595 17.1191 113.204 16.7285C112.82 16.3379 112.329 16.1426 111.73 16.1426C110.961 16.1426 110.369 16.4225 109.952 16.9824C109.536 17.5358 109.324 18.3789 109.317 19.5117V19.8926C109.317 21.0384 109.523 21.8945 109.933 22.4609C110.349 23.0208 110.948 23.3008 111.73 23.3008ZM122.455 25.1953C120.951 25.1953 119.731 24.7233 118.793 23.7793C117.862 22.8288 117.397 21.5658 117.397 19.9902V19.6973C117.397 18.6426 117.598 17.7018 118.002 16.875C118.412 16.0417 118.985 15.3939 119.721 14.9316C120.457 14.4694 121.277 14.2383 122.182 14.2383C123.621 14.2383 124.731 14.6973 125.512 15.6152C126.3 16.5332 126.694 17.832 126.694 19.5117V20.4688H119.789C119.861 21.3411 120.151 22.0312 120.658 22.5391C121.173 23.0469 121.817 23.3008 122.592 23.3008C123.679 23.3008 124.565 22.8613 125.248 21.9824L126.528 23.2031C126.104 23.8346 125.538 24.3262 124.828 24.6777C124.125 25.0228 123.334 25.1953 122.455 25.1953ZM122.172 16.1426C121.521 16.1426 120.994 16.3704 120.59 16.8262C120.193 17.2819 119.939 17.9167 119.828 18.7305H124.35V18.5547C124.298 17.7604 124.086 17.1615 123.715 16.7578C123.344 16.3477 122.83 16.1426 122.172 16.1426ZM137.754 23.3008C138.347 23.3008 138.838 23.1283 139.229 22.7832C139.62 22.4382 139.828 22.0117 139.854 21.5039H142.09C142.064 22.1615 141.859 22.7767 141.475 23.3496C141.091 23.916 140.57 24.3652 139.912 24.6973C139.255 25.0293 138.545 25.1953 137.784 25.1953C136.306 25.1953 135.134 24.7168 134.268 23.7598C133.402 22.8027 132.969 21.4811 132.969 19.7949V19.5508C132.969 17.9427 133.399 16.6569 134.258 15.6934C135.118 14.7233 136.289 14.2383 137.774 14.2383C139.03 14.2383 140.052 14.6061 140.84 15.3418C141.634 16.071 142.051 17.0312 142.09 18.2227H139.854C139.828 17.6172 139.62 17.1191 139.229 16.7285C138.845 16.3379 138.353 16.1426 137.754 16.1426C136.986 16.1426 136.394 16.4225 135.977 16.9824C135.56 17.5358 135.349 18.3789 135.342 19.5117V19.8926C135.342 21.0384 135.547 21.8945 135.957 22.4609C136.374 23.0208 136.973 23.3008 137.754 23.3008ZM146.166 15.5859C146.94 14.6875 147.92 14.2383 149.105 14.2383C151.358 14.2383 152.5 15.5241 152.533 18.0957V25H150.16V18.1836C150.16 17.4544 150 16.9401 149.681 16.6406C149.369 16.3346 148.906 16.1816 148.294 16.1816C147.344 16.1816 146.634 16.6048 146.166 17.4512V25H143.792V10H146.166V15.5859ZM159.538 25.1953C158.034 25.1953 156.813 24.7233 155.876 23.7793C154.945 22.8288 154.479 21.5658 154.479 19.9902V19.6973C154.479 18.6426 154.681 17.7018 155.085 16.875C155.495 16.0417 156.068 15.3939 156.803 14.9316C157.539 14.4694 158.359 14.2383 159.264 14.2383C160.703 14.2383 161.813 14.6973 162.594 15.6152C163.382 16.5332 163.776 17.832 163.776 19.5117V20.4688H156.872C156.943 21.3411 157.233 22.0312 157.741 22.5391C158.255 23.0469 158.9 23.3008 159.674 23.3008C160.762 23.3008 161.647 22.8613 162.331 21.9824L163.61 23.2031C163.187 23.8346 162.62 24.3262 161.911 24.6777C161.208 25.0228 160.417 25.1953 159.538 25.1953ZM159.255 16.1426C158.603 16.1426 158.076 16.3704 157.672 16.8262C157.275 17.2819 157.021 17.9167 156.911 18.7305H161.432V18.5547C161.38 17.7604 161.169 17.1615 160.797 16.7578C160.426 16.3477 159.912 16.1426 159.255 16.1426ZM169.912 23.3008C170.504 23.3008 170.996 23.1283 171.386 22.7832C171.777 22.4382 171.985 22.0117 172.011 21.5039H174.248C174.222 22.1615 174.017 22.7767 173.633 23.3496C173.248 23.916 172.728 24.3652 172.07 24.6973C171.412 25.0293 170.703 25.1953 169.941 25.1953C168.463 25.1953 167.291 24.7168 166.426 23.7598C165.56 22.8027 165.127 21.4811 165.127 19.7949V19.5508C165.127 17.9427 165.556 16.6569 166.416 15.6934C167.275 14.7233 168.447 14.2383 169.931 14.2383C171.188 14.2383 172.21 14.6061 172.998 15.3418C173.792 16.071 174.209 17.0312 174.248 18.2227H172.011C171.985 17.6172 171.777 17.1191 171.386 16.7285C171.002 16.3379 170.511 16.1426 169.912 16.1426C169.144 16.1426 168.551 16.4225 168.134 16.9824C167.718 17.5358 167.506 18.3789 167.5 19.5117V19.8926C167.5 21.0384 167.705 21.8945 168.115 22.4609C168.532 23.0208 169.131 23.3008 169.912 23.3008ZM179.417 20.4688L178.362 21.5527V25H175.989V10H178.362V18.6523L179.104 17.7246L182.024 14.4336H184.876L180.95 18.8379L185.296 25H182.552L179.417 20.4688ZM190.836 25.1953C189.332 25.1953 188.111 24.7233 187.174 23.7793C186.243 22.8288 185.777 21.5658 185.777 19.9902V19.6973C185.777 18.6426 185.979 17.7018 186.383 16.875C186.793 16.0417 187.366 15.3939 188.102 14.9316C188.837 14.4694 189.657 14.2383 190.562 14.2383C192.001 14.2383 193.111 14.6973 193.893 15.6152C194.68 16.5332 195.074 17.832 195.074 19.5117V20.4688H188.17C188.241 21.3411 188.531 22.0312 189.039 22.5391C189.553 23.0469 190.198 23.3008 190.973 23.3008C192.06 23.3008 192.945 22.8613 193.629 21.9824L194.908 23.2031C194.485 23.8346 193.919 24.3262 193.209 24.6777C192.506 25.0228 191.715 25.1953 190.836 25.1953ZM190.553 16.1426C189.902 16.1426 189.374 16.3704 188.971 16.8262C188.574 17.2819 188.32 17.9167 188.209 18.7305H192.73V18.5547C192.678 17.7604 192.467 17.1615 192.096 16.7578C191.725 16.3477 191.21 16.1426 190.553 16.1426ZM202.401 16.6016C202.089 16.5495 201.767 16.5234 201.435 16.5234C200.347 16.5234 199.615 16.9401 199.237 17.7734V25H196.864V14.4336H199.13L199.189 15.6152C199.761 14.6973 200.556 14.2383 201.571 14.2383C201.91 14.2383 202.19 14.2839 202.411 14.375L202.401 16.6016Z" fill="white"/>
</g>
<defs>
<clipPath id="clip0">
<rect width="202" height="36" fill="white"/>
</clipPath>
</defs>
</svg>
