<svg width="179" height="36" viewBox="0 0 179 36" fill="none" xmlns="http://www.w3.org/2000/svg">
<g id="flex-grow">
<g id="flex">
<path id="Combined Shape" fill-rule="evenodd" clip-rule="evenodd" d="M0 18.1065C0 27.9411 8.05887 36 18.1065 36C27.9411 36 36 27.9411 36 18.1065C36 8.05887 27.9411 0 18.1065 0C8.05887 0 0 8.05887 0 18.1065ZM33.7263 18.1065C33.7263 26.6854 26.6854 33.7263 18.1065 33.7263C9.34353 33.7263 2.27368 26.714 2.27368 18.1065C2.27368 9.3146 9.3146 2.27368 18.1065 2.27368C26.714 2.27368 33.7263 9.34353 33.7263 18.1065Z" fill="white"/>
<path id="Oval 3" fill-rule="evenodd" clip-rule="evenodd" d="M16.4288 13.5917C16.7107 13.359 17.0649 13.2318 17.4305 13.2318C17.7922 13.2318 18.1429 13.3564 18.4235 13.5846L22.6335 17.0082C23.0074 17.3123 23.5156 17.3923 23.9648 17.218L25.9502 16.4474C26.1292 16.3779 26.3302 16.4036 26.4851 16.517C27.0788 16.9516 28.5751 18.0497 29.1289 18.482C30.4861 19.5416 31.486 20.25 31.486 20.25C31.486 20.25 31.4686 19.8601 31.486 19.4401C31.846 10.718 25.2324 4.39017 17.8022 4.50144C10.3803 4.61568 4.38132 10.5662 4.50178 18.8354C4.51309 19.5319 4.6193 20.25 4.6193 20.25L6.50953 18.8354L8.80622 17.1806C9.12242 16.9528 9.54513 16.9393 9.87525 17.1464L10.7991 17.7261C11.0088 17.8577 11.2793 17.8402 11.4703 17.6826L16.4288 13.5917Z" fill="white"/>
<path id="Oval 4" fill-rule="evenodd" clip-rule="evenodd" d="M16.6359 34.7904C18.8195 35.0437 20.6187 34.6644 21.2437 34.486C21.5288 34.4046 22.5941 34.144 22.8452 34.0596C23.6863 33.777 24.9699 33.1782 25.7013 32.7418C26.7957 32.0887 27.5685 31.4007 28.6388 30.4354C31.015 28.2924 32.625 24.3249 32.625 23.92C32.625 23.8287 28.2146 20.5068 26.9191 19.5329C26.7151 19.3796 26.4318 19.4032 26.253 19.5853C26.0843 19.7571 26.0583 20.0226 26.1911 20.2234C26.6343 20.894 27.5743 22.3246 27.6195 22.4617C27.792 22.9849 27.5465 23.2804 27.3009 23.1231C27.0553 22.9658 21.5646 19.2672 21.5646 19.2672L18.2802 16.9963C17.8686 16.7117 17.3068 17.0063 17.3068 17.5066C17.3068 17.5066 17.1957 19.1166 17.1957 20.1676C17.1957 20.5941 17.1518 21.1118 16.6359 21.246C16.3774 21.3132 15.7234 21.3527 15.7234 21.3527L10.1751 20.9334C9.79851 20.905 9.58736 21.358 9.85128 21.6281C9.85128 21.6281 17.1957 26.5849 17.1957 26.9884C17.1957 27.846 14.552 26.4718 12.4773 25.4639C9.95208 24.2372 7.14641 23.1341 6.44734 22.8633C6.34242 22.8227 6.22787 22.8316 6.13033 22.8877C5.52897 23.2335 3.35694 24.4869 3.37515 24.5407C4.0878 26.6437 5.97806 29.7235 8.8419 31.7745C9.987 32.5946 11.3079 33.3606 12.5939 33.8365C14.0645 34.3806 15.6064 34.7904 16.6359 34.7904Z" fill="white"/>
</g>
<path id="Devias Kit" d="M56.2949 20.3711C56.1517 21.888 55.5918 23.0729 54.6152 23.9258C53.6387 24.7721 52.3398 25.1953 50.7188 25.1953C49.5859 25.1953 48.5866 24.9284 47.7207 24.3945C46.8613 23.8542 46.1973 23.0892 45.7285 22.0996C45.2598 21.11 45.0156 19.9609 44.9961 18.6523V17.3242C44.9961 15.9831 45.2337 14.8014 45.709 13.7793C46.1842 12.7572 46.8646 11.9694 47.75 11.416C48.6419 10.8626 49.6706 10.5859 50.8359 10.5859C52.4049 10.5859 53.668 11.0124 54.625 11.8652C55.582 12.7181 56.1387 13.9225 56.2949 15.4785H53.834C53.7168 14.4564 53.4173 13.7207 52.9355 13.2715C52.4603 12.8158 51.7604 12.5879 50.8359 12.5879C49.7617 12.5879 48.9349 12.9818 48.3555 13.7695C47.7826 14.5508 47.4896 15.6999 47.4766 17.2168V18.4766C47.4766 20.013 47.75 21.1849 48.2969 21.9922C48.8503 22.7995 49.6576 23.2031 50.7188 23.2031C51.6888 23.2031 52.418 22.985 52.9062 22.5488C53.3945 22.1126 53.7038 21.3867 53.834 20.3711H56.2949ZM61.6593 20.4688L60.6046 21.5527V25H58.2316V10H60.6046V18.6523L61.3468 17.7246L64.2667 14.4336H67.1183L63.1925 18.8379L67.5382 25H64.7941L61.6593 20.4688ZM73.0783 25.1953C71.5744 25.1953 70.3537 24.7233 69.4162 23.7793C68.4852 22.8288 68.0197 21.5658 68.0197 19.9902V19.6973C68.0197 18.6426 68.2216 17.7018 68.6252 16.875C69.0354 16.0417 69.6083 15.3939 70.344 14.9316C71.0796 14.4694 71.9 14.2383 72.8049 14.2383C74.2437 14.2383 75.3537 14.6973 76.135 15.6152C76.9227 16.5332 77.3166 17.832 77.3166 19.5117V20.4688H70.4123C70.4839 21.3411 70.7737 22.0312 71.2815 22.5391C71.7958 23.0469 72.4403 23.3008 73.2151 23.3008C74.3023 23.3008 75.1877 22.8613 75.8713 21.9824L77.1506 23.2031C76.7274 23.8346 76.161 24.3262 75.4514 24.6777C74.7483 25.0228 73.9572 25.1953 73.0783 25.1953ZM72.7951 16.1426C72.1441 16.1426 71.6168 16.3704 71.2131 16.8262C70.816 17.2819 70.5621 17.9167 70.4514 18.7305H74.9729V18.5547C74.9208 17.7604 74.7092 17.1615 74.3381 16.7578C73.967 16.3477 73.4527 16.1426 72.7951 16.1426ZM83.4525 23.3008C84.0449 23.3008 84.5365 23.1283 84.9271 22.7832C85.3177 22.4382 85.526 22.0117 85.5521 21.5039H87.7884C87.7624 22.1615 87.5573 22.7767 87.1732 23.3496C86.7891 23.916 86.2682 24.3652 85.6107 24.6973C84.9531 25.0293 84.2435 25.1953 83.4818 25.1953C82.0039 25.1953 80.832 24.7168 79.9661 23.7598C79.1003 22.8027 78.6673 21.4811 78.6673 19.7949V19.5508C78.6673 17.9427 79.097 16.6569 79.9564 15.6934C80.8158 14.7233 81.9876 14.2383 83.472 14.2383C84.7285 14.2383 85.7506 14.6061 86.5384 15.3418C87.3327 16.071 87.7493 17.0312 87.7884 18.2227H85.5521C85.526 17.6172 85.3177 17.1191 84.9271 16.7285C84.543 16.3379 84.0514 16.1426 83.4525 16.1426C82.6842 16.1426 82.0918 16.4225 81.6751 16.9824C81.2585 17.5358 81.0469 18.3789 81.0404 19.5117V19.8926C81.0404 21.0384 81.2454 21.8945 81.6556 22.4609C82.0723 23.0208 82.6712 23.3008 83.4525 23.3008ZM92.9575 20.4688L91.9028 21.5527V25H89.5297V10H91.9028V18.6523L92.645 17.7246L95.5649 14.4336H98.4165L94.4907 18.8379L98.8364 25H96.0922L92.9575 20.4688ZM106.232 25C106.128 24.7982 106.037 24.4694 105.959 24.0137C105.203 24.8014 104.279 25.1953 103.185 25.1953C102.124 25.1953 101.258 24.8926 100.587 24.2871C99.9169 23.6816 99.5816 22.9329 99.5816 22.041C99.5816 20.9147 99.9983 20.0521 100.832 19.4531C101.671 18.8477 102.869 18.5449 104.425 18.5449H105.88V17.8516C105.88 17.3047 105.727 16.8685 105.421 16.543C105.115 16.2109 104.65 16.0449 104.025 16.0449C103.485 16.0449 103.042 16.1816 102.697 16.4551C102.352 16.722 102.179 17.0638 102.179 17.4805H99.8062C99.8062 16.901 99.9983 16.3607 100.382 15.8594C100.766 15.3516 101.287 14.9544 101.945 14.668C102.609 14.3815 103.348 14.2383 104.162 14.2383C105.399 14.2383 106.385 14.5508 107.121 15.1758C107.856 15.7943 108.234 16.6667 108.253 17.793V22.5586C108.253 23.5091 108.387 24.2676 108.654 24.834V25H106.232ZM103.625 23.291C104.093 23.291 104.533 23.1771 104.943 22.9492C105.36 22.7214 105.672 22.4154 105.88 22.0312V20.0391H104.601C103.722 20.0391 103.061 20.1921 102.619 20.498C102.176 20.804 101.955 21.237 101.955 21.7969C101.955 22.2526 102.104 22.6172 102.404 22.8906C102.71 23.1576 103.117 23.291 103.625 23.291ZM119.956 19.8242C119.956 21.4648 119.588 22.7702 118.852 23.7402C118.123 24.7103 117.117 25.1953 115.835 25.1953C114.598 25.1953 113.634 24.7493 112.944 23.8574L112.827 25H110.678V10H113.051V15.4492C113.735 14.6419 114.656 14.2383 115.815 14.2383C117.104 14.2383 118.117 14.7168 118.852 15.6738C119.588 16.6309 119.956 17.9688 119.956 19.6875V19.8242ZM117.583 19.6191C117.583 18.4733 117.381 17.6139 116.977 17.041C116.574 16.4681 115.988 16.1816 115.219 16.1816C114.191 16.1816 113.468 16.6309 113.051 17.5293V21.8848C113.475 22.8027 114.204 23.2617 115.239 23.2617C115.981 23.2617 116.554 22.985 116.958 22.4316C117.361 21.8783 117.57 21.0417 117.583 19.9219V19.6191ZM127.82 22.1289C127.82 21.7057 127.644 21.3835 127.293 21.1621C126.948 20.9408 126.372 20.7454 125.564 20.5762C124.757 20.4069 124.083 20.1921 123.543 19.9316C122.358 19.3587 121.765 18.5286 121.765 17.4414C121.765 16.5299 122.15 15.7682 122.918 15.1562C123.686 14.5443 124.663 14.2383 125.847 14.2383C127.11 14.2383 128.129 14.5508 128.904 15.1758C129.685 15.8008 130.076 16.6113 130.076 17.6074H127.703C127.703 17.1517 127.534 16.7741 127.195 16.4746C126.857 16.1686 126.407 16.0156 125.847 16.0156C125.327 16.0156 124.9 16.1361 124.568 16.377C124.243 16.6178 124.08 16.9401 124.08 17.3438C124.08 17.7083 124.233 17.9915 124.539 18.1934C124.845 18.3952 125.463 18.6003 126.394 18.8086C127.325 19.0104 128.054 19.2546 128.582 19.541C129.116 19.821 129.51 20.1595 129.763 20.5566C130.024 20.9538 130.154 21.4355 130.154 22.002C130.154 22.9525 129.76 23.724 128.972 24.3164C128.185 24.9023 127.153 25.1953 125.877 25.1953C125.011 25.1953 124.239 25.0391 123.562 24.7266C122.885 24.4141 122.358 23.9844 121.98 23.4375C121.603 22.8906 121.414 22.3014 121.414 21.6699H123.719C123.751 22.2298 123.963 22.6628 124.353 22.9688C124.744 23.2682 125.262 23.418 125.906 23.418C126.531 23.418 127.006 23.3008 127.332 23.0664C127.657 22.8255 127.82 22.513 127.82 22.1289Z" fill="white"/>
</g>
</svg>
